<?xml version="1.0" encoding="UTF-8" standalone="no"?>
<!DOCTYPE svg PUBLIC "-//W3C//DTD SVG 1.1//EN" "http://www.w3.org/Graphics/SVG/1.1/DTD/svg11.dtd">
<svg width="100%" height="100%" viewBox="0 0 252 47" version="1.1" xmlns="http://www.w3.org/2000/svg" xmlns:xlink="http://www.w3.org/1999/xlink" xml:space="preserve" xmlns:serif="http://www.serif.com/" style="fill-rule:evenodd;clip-rule:evenodd;stroke-linejoin:round;stroke-miterlimit:2;">
    <g transform="matrix(1,0,0,1,-48,-661)">
        <g transform="matrix(1,0,0,1,8.74516,0.317333)">
            <g transform="matrix(1.85236,0,0,1.82926,9.23879,638.095)">
                <path d="M49.452,28.774C49.452,29.201 49.239,29.414 48.812,29.414L47.523,29.414C47.48,29.414 47.455,29.389 47.449,29.34L47.449,21.855C47.449,21.429 47.662,21.215 48.089,21.215L49.378,21.215C49.427,21.215 49.452,21.24 49.452,21.289L49.452,28.774ZM55.317,21.225C55.41,21.225 55.407,21.28 55.311,21.388L51.865,25.001L54.603,29.089C54.715,29.188 54.77,29.272 54.77,29.337C54.764,29.386 54.705,29.411 54.6,29.411L52.829,29.411C52.666,29.411 52.53,29.331 52.425,29.167C50.611,26.438 49.65,25.019 49.535,24.911C50.793,23.626 51.862,22.498 52.743,21.53C52.885,21.317 53.101,21.209 53.392,21.209L55.317,21.225Z" style="fill:white;fill-rule:nonzero;"/>
            </g>
            <g transform="matrix(1.85236,0,0,1.82926,9.23879,638.095)">
                <path d="M60.905,29.071C60.905,29.3 60.79,29.411 60.565,29.411L59.638,29.411C59.409,29.411 59.298,29.297 59.298,29.071L59.298,25.798C59.298,25.437 59.217,25.199 59.053,25.084C58.917,24.992 58.664,24.945 58.287,24.945C57.725,24.945 57.326,24.97 57.094,25.019L57.094,29.071C57.094,29.3 56.98,29.411 56.754,29.411L55.827,29.411C55.598,29.411 55.487,29.297 55.487,29.071L55.487,24.349C55.487,23.978 55.679,23.756 56.062,23.678C56.702,23.552 57.465,23.487 58.355,23.487C60.061,23.487 60.914,24.194 60.914,25.61L60.914,29.071L60.905,29.071Z" style="fill:white;fill-rule:nonzero;"/>
            </g>
            <g transform="matrix(1.85236,0,0,1.82926,9.23879,638.095)">
                <path d="M67.493,26.407C67.493,27.452 67.252,28.227 66.767,28.731C66.285,29.235 65.525,29.488 64.486,29.488C63.448,29.488 62.688,29.235 62.206,28.731C61.724,28.227 61.479,27.452 61.479,26.407C61.479,24.466 62.481,23.496 64.486,23.496C66.492,23.496 67.493,24.466 67.493,26.407ZM65.849,26.407C65.849,25.845 65.763,25.464 65.593,25.267C65.401,25.053 65.03,24.945 64.483,24.945C63.952,24.945 63.59,25.053 63.402,25.267C63.213,25.48 63.12,25.86 63.12,26.407C63.12,26.997 63.198,27.402 63.355,27.622C63.541,27.884 63.918,28.017 64.486,28.017C65.061,28.017 65.441,27.89 65.627,27.634C65.775,27.427 65.849,27.019 65.849,26.407Z" style="fill:white;fill-rule:nonzero;"/>
            </g>
            <g transform="matrix(1.85236,0,0,1.82926,9.23879,638.095)">
                <path d="M75.958,23.879C75.958,23.95 75.945,24.021 75.927,24.092L74.477,29.114C74.422,29.312 74.276,29.414 74.042,29.414L72.979,29.414C72.765,29.414 72.623,29.303 72.552,29.083L71.64,26.178L70.713,29.114C70.648,29.312 70.503,29.414 70.278,29.414L69.19,29.414C68.97,29.414 68.828,29.3 68.763,29.074L67.357,24.083C67.329,23.984 67.314,23.916 67.314,23.879C67.314,23.66 67.428,23.548 67.654,23.548L68.433,23.548C68.76,23.548 68.955,23.681 69.02,23.944L69.808,27.238L70.843,23.879C70.914,23.66 71.056,23.548 71.269,23.548L72.058,23.548C72.305,23.548 72.462,23.66 72.527,23.879L73.507,27.248L74.385,23.944C74.456,23.681 74.647,23.548 74.959,23.548L75.621,23.548C75.843,23.548 75.958,23.66 75.958,23.879Z" style="fill:white;fill-rule:nonzero;"/>
            </g>
            <g transform="matrix(1.85236,0,0,1.82926,9.23879,638.095)">
                <path d="M78.464,29.083C78.464,29.303 78.35,29.414 78.124,29.414L77.218,29.414C76.977,29.414 76.857,29.303 76.857,29.083L76.857,21.994C76.857,21.496 77.107,21.249 77.605,21.249L78.127,21.249C78.356,21.249 78.467,21.364 78.467,21.589L78.467,29.083L78.464,29.083Z" style="fill:white;fill-rule:nonzero;"/>
            </g>
            <g transform="matrix(1.85236,0,0,1.82926,9.23879,638.095)">
                <path d="M84.818,25.307C84.818,25.854 84.663,26.262 84.36,26.534C84.147,26.719 83.928,26.855 83.699,26.939C83.541,26.994 83.266,27.059 82.868,27.13L81.001,27.461C81.094,27.711 81.279,27.872 81.554,27.952C81.712,27.995 81.975,28.017 82.342,28.017C82.682,28.017 83.041,27.999 83.418,27.965L84.122,27.921C84.308,27.906 84.422,28.017 84.462,28.252L84.484,28.765C84.499,29.136 84.302,29.352 83.897,29.414C83.578,29.463 83.001,29.488 82.169,29.488C81.153,29.488 80.408,29.235 79.935,28.731C79.462,28.227 79.227,27.461 79.227,26.438C79.227,25.421 79.456,24.676 79.913,24.204C80.371,23.731 81.106,23.496 82.114,23.496C83.918,23.496 84.818,24.099 84.818,25.307ZM83.186,25.328C83.186,25.029 82.858,24.88 82.206,24.88C81.703,24.88 81.356,24.967 81.171,25.137C80.986,25.307 80.887,25.644 80.871,26.141L82.321,25.872C82.67,25.808 82.886,25.755 82.97,25.712C83.115,25.644 83.186,25.514 83.186,25.328Z" style="fill:white;fill-rule:nonzero;"/>
            </g>
            <g transform="matrix(1.85236,0,0,1.82926,9.23879,638.095)">
                <path d="M90.853,28.604C90.853,28.972 90.658,29.198 90.266,29.275C89.549,29.417 88.878,29.488 88.26,29.488C87.172,29.488 86.394,29.247 85.921,28.762C85.448,28.28 85.213,27.492 85.213,26.407C85.213,24.438 86.205,23.453 88.189,23.453C88.637,23.453 88.99,23.462 89.246,23.484L89.246,21.478C89.246,21.259 89.36,21.15 89.586,21.15L90.13,21.15C90.612,21.15 90.856,21.398 90.856,21.895L90.856,28.604L90.853,28.604ZM89.243,25.01C89.082,24.945 88.758,24.914 88.269,24.914C87.707,24.914 87.327,25.016 87.132,25.223C86.938,25.43 86.842,25.82 86.842,26.389C86.842,27.102 86.941,27.554 87.141,27.748C87.312,27.912 87.71,27.995 88.334,27.995C88.69,27.995 88.993,27.977 89.24,27.943L89.24,25.01L89.243,25.01Z" style="fill:white;fill-rule:nonzero;"/>
            </g>
            <g transform="matrix(1.85236,0,0,1.82926,9.23879,638.095)">
                <path d="M96.941,28.691C96.941,29.726 96.737,30.465 96.332,30.907C95.906,31.355 95.176,31.577 94.147,31.577C93.415,31.577 92.819,31.537 92.355,31.46C91.963,31.395 91.774,31.154 91.789,30.73L91.802,30.372C91.808,30.153 91.913,30.044 92.111,30.044L92.111,30.097C92.117,30.075 92.129,30.057 92.142,30.044L92.163,30.044L92.763,30.097C93.162,30.131 93.613,30.149 94.11,30.149C94.651,30.149 95,30.078 95.158,29.933C95.266,29.831 95.328,29.624 95.35,29.318C95.099,29.334 94.762,29.34 94.333,29.34C93.335,29.34 92.596,29.12 92.12,28.678C91.623,28.215 91.372,27.492 91.372,26.503C91.372,25.43 91.604,24.661 92.071,24.194C92.537,23.728 93.307,23.496 94.379,23.496C95.04,23.496 95.705,23.561 96.372,23.688C96.749,23.759 96.938,23.978 96.938,24.349L96.941,28.691ZM95.353,27.826L95.353,24.988C95.068,24.961 94.778,24.945 94.478,24.945C93.866,24.945 93.477,25.026 93.307,25.189C93.109,25.381 93.007,25.826 93.007,26.521C93.007,27.062 93.103,27.424 93.294,27.609C93.486,27.795 93.857,27.887 94.404,27.887C94.815,27.887 95.13,27.866 95.353,27.826Z" style="fill:white;fill-rule:nonzero;"/>
            </g>
            <g transform="matrix(1.85236,0,0,1.82926,9.23879,638.095)">
                <path d="M103.273,25.307C103.273,25.854 103.119,26.262 102.816,26.534C102.603,26.719 102.383,26.855 102.154,26.939C101.997,26.994 101.722,27.059 101.323,27.13L99.457,27.461C99.549,27.711 99.735,27.872 100.01,27.952C100.167,27.995 100.43,28.017 100.798,28.017C101.138,28.017 101.496,27.999 101.873,27.965L102.578,27.921C102.763,27.906 102.878,28.017 102.918,28.252L102.939,28.765C102.955,29.136 102.757,29.352 102.352,29.414C102.034,29.463 101.456,29.488 100.625,29.488C99.608,29.488 98.863,29.235 98.39,28.731C97.918,28.227 97.683,27.461 97.683,26.438C97.683,25.421 97.911,24.676 98.369,24.204C98.826,23.731 99.562,23.496 100.569,23.496C102.374,23.496 103.273,24.099 103.273,25.307ZM101.641,25.328C101.641,25.029 101.314,24.88 100.662,24.88C100.158,24.88 99.812,24.967 99.626,25.137C99.441,25.307 99.342,25.644 99.327,26.141L100.776,25.872C101.125,25.808 101.342,25.755 101.425,25.712C101.57,25.644 101.641,25.514 101.641,25.328Z" style="fill:white;fill-rule:nonzero;"/>
            </g>
            <g transform="matrix(1.85236,0,0,1.82926,9.23879,638.095)">
                <path d="M111.62,27.078C111.62,27.897 111.299,28.505 110.659,28.91C110.134,29.244 109.432,29.411 108.558,29.411L104.284,29.411C104.185,29.411 104.135,29.355 104.135,29.241L104.135,28.369C104.135,27.937 104.345,27.72 104.766,27.72L108.721,27.72C109.312,27.72 109.605,27.532 109.605,27.155C109.605,26.806 109.309,26.565 108.721,26.432L106.228,25.863C104.719,25.523 103.965,24.772 103.965,23.613C103.965,22.831 104.247,22.226 104.809,21.79C105.322,21.391 105.977,21.194 106.781,21.194L111.228,21.194C111.333,21.194 111.388,21.249 111.388,21.364L111.388,22.164C111.388,22.646 111.144,22.89 110.653,22.89L106.867,22.89C106.336,22.89 106.067,23.079 106.067,23.456C106.067,23.756 106.333,23.997 106.867,24.182L109.448,24.748C110.897,25.063 111.62,25.842 111.62,27.078Z" style="fill:white;fill-rule:nonzero;"/>
            </g>
            <g transform="matrix(1.85236,0,0,1.82926,9.23879,638.095)">
                <path d="M118.008,26.407C118.008,27.452 117.767,28.227 117.282,28.731C116.8,29.235 116.039,29.488 115.001,29.488C113.963,29.488 113.202,29.235 112.72,28.731C112.238,28.227 111.994,27.452 111.994,26.407C111.994,24.466 112.995,23.496 115.001,23.496C117.007,23.496 118.008,24.466 118.008,26.407ZM116.367,26.407C116.367,25.845 116.28,25.464 116.11,25.267C115.919,25.053 115.548,24.945 115.001,24.945C114.469,24.945 114.108,25.053 113.919,25.267C113.731,25.48 113.638,25.86 113.638,26.407C113.638,26.997 113.715,27.402 113.873,27.622C114.058,27.884 114.435,28.017 115.004,28.017C115.579,28.017 115.959,27.89 116.144,27.634C116.29,27.427 116.367,27.019 116.367,26.407Z" style="fill:white;fill-rule:nonzero;"/>
            </g>
            <g transform="matrix(1.85236,0,0,1.82926,9.23879,638.095)">
                <path d="M120.344,29.083C120.344,29.303 120.23,29.414 120.004,29.414L119.099,29.414C118.858,29.414 118.737,29.303 118.737,29.083L118.737,21.994C118.737,21.496 118.988,21.249 119.485,21.249L120.007,21.249C120.236,21.249 120.347,21.364 120.347,21.589L120.347,29.083L120.344,29.083Z" style="fill:white;fill-rule:nonzero;"/>
            </g>
            <g transform="matrix(1.85236,0,0,1.82926,9.23879,638.095)">
                <path d="M126.59,28.623C126.59,28.994 126.398,29.216 126.015,29.293C125.375,29.42 124.612,29.485 123.722,29.485C122.016,29.485 121.163,28.777 121.163,27.362L121.163,24.312C121.163,23.808 121.407,23.555 121.899,23.555L122.43,23.555C122.659,23.555 122.77,23.669 122.77,23.895L122.77,27.167C122.77,27.529 122.85,27.767 123.014,27.881C123.15,27.974 123.404,28.02 123.781,28.02C124.343,28.02 124.742,27.995 124.974,27.946L124.974,24.318C124.974,23.814 125.218,23.561 125.709,23.561L126.244,23.561C126.472,23.561 126.584,23.675 126.584,23.901L126.584,28.623L126.59,28.623Z" style="fill:white;fill-rule:nonzero;"/>
            </g>
            <g transform="matrix(1.85236,0,0,1.82926,9.23879,638.095)">
                <path d="M130.589,28.74C130.589,29.145 130.422,29.377 130.088,29.432C129.875,29.466 129.587,29.485 129.226,29.485C127.804,29.485 127.094,28.821 127.094,27.492L127.094,22.782C127.094,22.278 127.338,22.025 127.829,22.025L128.361,22.025C128.589,22.025 128.701,22.139 128.701,22.365L128.701,23.592L130.023,23.592C130.258,23.592 130.375,23.709 130.375,23.944L130.375,24.627C130.375,24.862 130.258,24.979 130.023,24.979L128.701,24.979L128.701,27.516C128.701,27.767 128.75,27.924 128.849,27.986C128.92,28.036 129.093,28.06 129.371,28.06C129.448,28.06 129.56,28.051 129.708,28.029C129.853,28.008 129.964,27.999 130.045,27.999C130.394,27.999 130.567,28.113 130.567,28.339C130.567,28.382 130.57,28.45 130.579,28.542C130.586,28.632 130.589,28.7 130.589,28.74Z" style="fill:white;fill-rule:nonzero;"/>
            </g>
            <g transform="matrix(1.85236,0,0,1.82926,9.23879,638.095)">
                <path d="M132.764,22.034C132.764,22.64 132.461,22.94 131.859,22.94C131.247,22.94 130.941,22.637 130.941,22.034C130.941,21.41 131.247,21.095 131.859,21.095C132.461,21.098 132.764,21.41 132.764,22.034ZM132.656,29.071C132.656,29.3 132.542,29.411 132.316,29.411L131.389,29.411C131.16,29.411 131.049,29.297 131.049,29.071L131.049,24.306C131.049,23.802 131.293,23.548 131.785,23.548L132.319,23.548C132.548,23.548 132.659,23.663 132.659,23.888L132.659,29.071L132.656,29.071Z" style="fill:white;fill-rule:nonzero;"/>
            </g>
            <g transform="matrix(1.85236,0,0,1.82926,9.23879,638.095)">
                <path d="M138.97,26.407C138.97,27.452 138.729,28.227 138.243,28.731C137.761,29.235 137.001,29.488 135.963,29.488C134.924,29.488 134.164,29.235 133.682,28.731C133.2,28.227 132.956,27.452 132.956,26.407C132.956,24.466 133.957,23.496 135.963,23.496C137.965,23.496 138.97,24.466 138.97,26.407ZM137.326,26.407C137.326,25.845 137.239,25.464 137.069,25.267C136.878,25.053 136.507,24.945 135.96,24.945C135.428,24.945 135.067,25.053 134.878,25.267C134.69,25.48 134.597,25.86 134.597,26.407C134.597,26.997 134.674,27.402 134.832,27.622C135.017,27.884 135.394,28.017 135.963,28.017C136.538,28.017 136.918,27.89 137.103,27.634C137.251,27.427 137.326,27.019 137.326,26.407Z" style="fill:white;fill-rule:nonzero;"/>
            </g>
            <g transform="matrix(1.85236,0,0,1.82926,9.23879,638.095)">
                <path d="M145.045,29.071C145.045,29.3 144.931,29.411 144.705,29.411L143.778,29.411C143.55,29.411 143.438,29.297 143.438,29.071L143.438,25.798C143.438,25.437 143.358,25.199 143.194,25.084C143.058,24.992 142.805,24.945 142.428,24.945C141.865,24.945 141.467,24.97 141.235,25.019L141.235,29.071C141.235,29.3 141.121,29.411 140.895,29.411L139.968,29.411C139.739,29.411 139.628,29.297 139.628,29.071L139.628,24.349C139.628,23.978 139.82,23.756 140.203,23.678C140.842,23.552 141.606,23.487 142.496,23.487C144.202,23.487 145.055,24.194 145.055,25.61L145.055,29.071L145.045,29.071Z" style="fill:white;fill-rule:nonzero;"/>
            </g>
            <g transform="matrix(1.85236,0,0,1.82926,9.23879,638.095)">
                <path d="M150.676,27.578C150.676,28.852 149.82,29.488 148.108,29.488C147.311,29.488 146.683,29.448 146.22,29.371C145.843,29.306 145.654,29.052 145.654,28.604L145.654,28.413C145.654,28.456 145.657,28.388 145.663,28.209C145.67,27.995 145.778,27.887 145.985,27.887C146.013,27.894 146.071,27.903 146.155,27.909L146.625,27.974C147.045,28.029 147.499,28.06 147.99,28.06C148.695,28.06 149.047,27.934 149.047,27.677C149.047,27.541 148.757,27.393 148.173,27.229C147.79,27.121 147.406,27.019 147.02,26.92C146.538,26.772 146.192,26.605 145.985,26.419C145.685,26.157 145.537,25.795 145.537,25.332C145.537,24.108 146.387,23.499 148.086,23.499C148.89,23.499 149.35,23.508 149.474,23.53C150.042,23.629 150.321,23.907 150.305,24.361C150.305,24.405 150.302,24.528 150.293,24.735C150.287,24.942 150.178,25.044 149.974,25.044L149.931,25.044L149.826,25.023L149.421,24.97C149.094,24.927 148.68,24.905 148.173,24.905C147.49,24.905 147.15,25.016 147.15,25.236C147.15,25.393 147.456,25.539 148.068,25.672C148.884,25.857 149.449,26.03 149.764,26.194C150.37,26.521 150.676,26.982 150.676,27.578Z" style="fill:white;fill-rule:nonzero;"/>
            </g>
        </g>
        <g transform="matrix(1.01263,0,0,1,48,662.054)">
            <path d="M25.699,20.878C24.893,20.878 24.327,20.937 24.006,21.058L24.006,26.602C24.411,26.682 24.988,26.722 25.743,26.722C26.806,26.722 27.535,26.524 27.93,26.129C28.326,25.736 28.524,25.01 28.524,23.95C28.524,22.733 28.363,21.929 28.039,21.54C27.674,21.098 26.895,20.878 25.699,20.878Z" style="fill:white;"/>
        </g>
        <g transform="matrix(1.01263,0,0,1,48,662.054)">
            <path d="M44.016,40.048L44.016,5.927C44.016,4.305 42.687,2.991 41.049,2.991L6.545,2.991C4.907,2.991 3.579,4.305 3.579,5.927L3.579,40.048C3.579,41.67 4.907,42.984 6.545,42.984L41.052,42.984C42.69,42.984 44.019,41.67 44.019,40.048L44.016,40.048ZM19.608,29.315L17.498,29.315C17.161,29.315 16.886,29.182 16.672,28.913L13.137,24.371C13.122,24.349 13.112,24.33 13.097,24.312L13.097,28.672C13.097,29.102 12.884,29.315 12.454,29.315L10.708,29.315C10.278,29.315 10.065,29.102 10.065,28.672L10.065,15.232C10.065,14.284 10.526,13.808 11.45,13.808L12.454,13.808C12.884,13.808 13.097,14.021 13.097,14.451L13.097,22.266C13.122,22.238 13.143,22.207 13.171,22.179L16.716,18.629C16.957,18.388 17.216,18.267 17.498,18.267L19.565,18.267C19.995,18.267 20.208,18.474 20.208,18.888C20.208,19.089 20.127,19.262 19.967,19.411L15.949,23.249L20.029,28.19C20.174,28.363 20.248,28.53 20.251,28.694C20.251,29.108 20.038,29.315 19.608,29.315ZM25.959,29.494C25.18,29.494 24.528,29.46 24.006,29.392L24.006,31.948C24.006,32.909 23.545,33.388 22.628,33.388L21.611,33.388C21.184,33.388 20.971,33.172 20.971,32.745L20.971,19.757C20.971,19.058 21.339,18.638 22.077,18.49C23.295,18.249 24.562,18.128 25.876,18.128C27.912,18.128 29.377,18.579 30.273,19.485C31.169,20.387 31.617,21.861 31.617,23.91C31.617,27.634 29.732,29.494 25.959,29.494ZM36.503,28.691L36.5,28.691C36.5,29.105 36.287,29.312 35.857,29.312L34.151,29.312C33.697,29.312 33.468,29.105 33.468,28.691L33.468,15.334C33.468,14.398 33.938,13.928 34.875,13.928L35.86,13.928C36.29,13.928 36.503,14.141 36.503,14.571L36.503,28.691Z" style="fill:white;"/>
        </g>
    </g>
</svg>
